# xmcd CD database file
#
# Track frame offsets:
#	150
#	17776
#	35946
#	56348
#	74324
#	96518
#	116251
#	142144
#	161436
#	180239
#	200244
#	228111
#	243254
#	261493
#	291141
#
# Disc length: 4200 seconds
#
# Revision: 2
# Processed by: cddbd v1.5.1PL2 Copyright (c) Steve Scherf et al.
# Submitted via: CDex 1.60beta1-cs1
#
DISCID=db10660f
DTITLE=Dj Sammy - Heaven
DYEAR=2002
DGENRE=Trance
TTITLE0=Heaven
TTITLE1=Boys Of Summer
TTITLE2=California Dreaming
TTITLE3=Sunlight
TTITLE4=Beautiful Smile
TTITLE5=El Condor Pasa
TTITLE6=Paradise Of Love
TTITLE7=Unbreakable
TTITLE8=Vive El Presente
TTITLE9=Take Me Back To Heaven
TTITLE10=Sunchild
TTITLE11=Sunlight (Bossa Nova Vibes)
TTITLE12=Heaven (Candlelight)
TTITLE13=Boys Of Summer (Extended Remix)
TTITLE14=Heaven (S'n'y Mix Extended)
EXTD=YEAR: 2002
EXTT0=
EXTT1=
EXTT2=
EXTT3=
EXTT4=
EXTT5=
EXTT6=
EXTT7=
EXTT8=
EXTT9=
EXTT10=
EXTT11=
EXTT12=
EXTT13=
EXTT14=
PLAYORDER=
